<svg xmlns="http://www.w3.org/2000/svg" width="20.5" height="19" viewBox="0 0 20.5 19">
  <g id="_15953164891594941301" data-name="15953164891594941301" transform="translate(-2.5 -3.5)">
    <path id="Path_141" data-name="Path 141" d="M22,20.6v3.3a1.5,1.5,0,0,1-1.5,1.5H5.5A1.5,1.5,0,0,1,4,23.9V20.6" transform="translate(-0.25 -4.15)" fill="none" stroke="#929397" stroke-linecap="round" stroke-linejoin="round" stroke-miterlimit="10" stroke-width="1"/>
    <path id="Path_142" data-name="Path 142" d="M15.5,22.75h0a1.5,1.5,0,0,1-1.5-1.5V19h3v2.25A1.5,1.5,0,0,1,15.5,22.75Z" transform="translate(-2.75 -3.75)" fill="none" stroke="#929397" stroke-linecap="round" stroke-linejoin="round" stroke-miterlimit="10" stroke-width="1"/>
    <path id="Path_143" data-name="Path 143" d="M11.25,18.5H6a3.009,3.009,0,0,1-3-3v-6A1.5,1.5,0,0,1,4.5,8H21a1.5,1.5,0,0,1,1.5,1.5v6a3.009,3.009,0,0,1-3,3H14.25" transform="translate(0 -1)" fill="none" stroke="#929397" stroke-linecap="round" stroke-linejoin="round" stroke-miterlimit="10" stroke-width="1"/>
    <path id="Path_144" data-name="Path 144" d="M18,7H12V5.5A1.5,1.5,0,0,1,13.5,4h3A1.5,1.5,0,0,1,18,5.5Z" transform="translate(-2.25)" fill="none" stroke="#929397" stroke-linecap="round" stroke-linejoin="round" stroke-miterlimit="10" stroke-width="1"/>
    <line id="Line_32" data-name="Line 32" y1="1" transform="translate(5.75 21)" fill="none" stroke="#929397" stroke-linecap="round" stroke-linejoin="round" stroke-miterlimit="10" stroke-width="1"/>
    <line id="Line_33" data-name="Line 33" y1="1" transform="translate(19.75 21)" fill="none" stroke="#929397" stroke-linecap="round" stroke-linejoin="round" stroke-miterlimit="10" stroke-width="1"/>
  </g>
</svg>
