<svg xmlns="http://www.w3.org/2000/svg" width="20" height="20" viewBox="0 0 20 20">
  <g id="comment-icon" transform="translate(-74 -671)">
    <circle id="Ellipse_10" data-name="Ellipse 10" cx="10" cy="10" r="10" transform="translate(74 671)" fill="#fff"/>
    <g id="Layer_2" data-name="Layer 2" transform="translate(148.474 675.122)">
      <g id="_3933037771600677167" data-name="3933037771600677167" transform="translate(-74.474 -8.388)">
        <g id="Group_85" data-name="Group 85" transform="translate(6.424 12.19)">
          <path id="Path_131" data-name="Path 131" d="M17.4,21.309H13.046a.266.266,0,1,1,0-.531H17.4a.266.266,0,0,1,0,.531Z" transform="translate(-12.781 -20.778)" fill="#2f79bb"/>
        </g>
        <path id="Path_132" data-name="Path 132" d="M16.311,35.347H13.046a.266.266,0,1,0,0,.531h3.039Z" transform="translate(-6.357 -20.49)" fill="#2f79bb"/>
        <path id="Path_133" data-name="Path 133" d="M16.866,28.194h-3.82a.266.266,0,1,0,0,.531h3.594Z" transform="translate(-6.357 -14.647)" fill="#2f79bb"/>
        <g id="Group_87" data-name="Group 87" transform="translate(10.318 10.479)">
          <rect id="Rectangle_48" data-name="Rectangle 48" width="4.042" height="1.009" transform="translate(0.679 3.277) rotate(-45)" fill="#2f79bb"/>
          <path id="Path_134" data-name="Path 134" d="M35.228,31l-1.175.5.5-1.175Z" transform="translate(-34.053 -26.866)" fill="#2f79bb"/>
          <g id="Group_86" data-name="Group 86" transform="translate(3.718)">
            <path id="Path_135" data-name="Path 135" d="M55.25,11.9l-.407-.407a.217.217,0,0,0-.306,0l-.174.174.713.713.174-.174A.217.217,0,0,0,55.25,11.9Z" transform="translate(-54.362 -11.43)" fill="#2f79bb"/>
          </g>
        </g>
        <path id="Path_136" data-name="Path 136" d="M12.2,15.916a.314.314,0,0,1-.314.314H8.74a.266.266,0,0,0-.1.021L5.531,17.557V11.806a.459.459,0,0,1,.459-.459h5.754a.459.459,0,0,1,.459.459v.129h0l.531-.531v-.6a.544.544,0,0,0-.544-.544H5.544A.544.544,0,0,0,5,10.809v7.148a.265.265,0,0,0,.368.245l3.425-1.44h3.1a.845.845,0,0,0,.845-.845V14.061l-.531.531v1.324Z" transform="translate(0 0)" fill="#3f4857"/>
      </g>
    </g>
  </g>
</svg>
