<svg id="_19574148881529659196" data-name="19574148881529659196" xmlns="http://www.w3.org/2000/svg" width="26" height="26" viewBox="0 0 26 26">
  <path id="Path_115" data-name="Path 115" d="M3.85,2.605A7.675,7.675,0,0,0,9.363,4.939a7.677,7.677,0,0,0,3.02-.617" transform="translate(0.295 0.185)" fill="none" stroke="#000" stroke-linecap="round" stroke-linejoin="round" stroke-width="1"/>
  <circle id="Ellipse_27" data-name="Ellipse 27" cx="4.624" cy="4.624" r="4.624" transform="translate(3.492 0.5)" fill="none" stroke="#000" stroke-linecap="round" stroke-linejoin="round" stroke-width="1"/>
  <path id="Path_116" data-name="Path 116" d="M11.924,11.52A7.616,7.616,0,0,0,.5,18.116V19.2h9.792" transform="translate(0 0.88)" fill="none" stroke="#000" stroke-linecap="round" stroke-linejoin="round" stroke-width="1"/>
  <rect id="Rectangle_32" data-name="Rectangle 32" width="13" height="9" rx="1" transform="translate(12.5 16.5)" fill="none" stroke="#000" stroke-linecap="round" stroke-linejoin="round" stroke-width="1"/>
  <path id="Path_117" data-name="Path 117" d="M20.44,18.4a.272.272,0,0,0-.272-.272h-1.36v-1.36a.272.272,0,0,0-.272-.272H16.9a.272.272,0,0,0-.272.272v1.36h-1.36A.272.272,0,0,0,15,18.4v1.632a.272.272,0,0,0,.272.272h1.36v1.36a.272.272,0,0,0,.272.272h1.632a.272.272,0,0,0,.272-.272v-1.36h1.36a.272.272,0,0,0,.272-.272Z" transform="translate(1.276 1.408)" fill="none" stroke="#000" stroke-linecap="round" stroke-linejoin="round" stroke-width="1"/>
  <path id="Path_118" data-name="Path 118" d="M15.5,14.676V13.588A1.088,1.088,0,0,1,16.588,12.5h2.176a1.088,1.088,0,0,1,1.088,1.088v1.088" transform="translate(1.32 1.056)" fill="none" stroke="#000" stroke-linecap="round" stroke-linejoin="round" stroke-width="1"/>
  <line id="Line_20" data-name="Line 20" y2="3.619" transform="translate(4.852 12.113)" fill="none" stroke="#000" stroke-linecap="round" stroke-linejoin="round" stroke-width="1"/>
  <ellipse id="Ellipse_28" data-name="Ellipse 28" cx="1" cy="0.5" rx="1" ry="0.5" transform="translate(3.5 16.5)" fill="none" stroke="#000" stroke-linecap="round" stroke-linejoin="round" stroke-width="1"/>
  <line id="Line_21" data-name="Line 21" y2="9" transform="translate(8.5 11.5)" fill="none" stroke="#000" stroke-linecap="round" stroke-linejoin="round" stroke-width="1"/>
  <line id="Line_22" data-name="Line 22" y2="1.702" transform="translate(11.924 12.398)" fill="none" stroke="#000" stroke-linecap="round" stroke-linejoin="round" stroke-width="1"/>
  <path id="Path_119" data-name="Path 119" d="M11.676,13.095A1.632,1.632,0,0,0,11.132,13h0A1.632,1.632,0,0,0,9.5,14.632v2.176" transform="translate(0.792 1.1)" fill="none" stroke="#000" stroke-linecap="round" stroke-linejoin="round" stroke-width="1"/>
</svg>
