<svg xmlns="http://www.w3.org/2000/svg" width="18.802" height="15.542" viewBox="0 0 18.802 15.542">
  <g id="_17401558541574055269" data-name="17401558541574055269" transform="translate(-1.735 -11.426)">
    <g id="_23.-Envelope" data-name="23.-Envelope" transform="translate(2.235 11.926)">
      <g id="Group_79" data-name="Group 79">
        <path id="Layer-1" d="M3,0H14.8a3,3,0,0,1,3,3v8.542a3,3,0,0,1-3,3H3a3,3,0,0,1-3-3V3A3,3,0,0,1,3,0Z" fill="none" stroke="#8f8b8b" stroke-linecap="round" stroke-width="1"/>
        <path id="Layer-2" d="M14.057,43.723l-5.334-4.4-.788.66-.788-.66-5.324,4.39" transform="translate(0.967 -31.911)" fill="none" stroke="#8f8b8b" stroke-linecap="round" stroke-linejoin="round" stroke-width="1" fill-rule="evenodd"/>
        <path id="Layer-3" d="M0,5.9l6.361,5.22L12.722,5.9" transform="translate(2.54 -3.045)" fill="none" stroke="#8f8b8b" stroke-linecap="round" stroke-linejoin="round" stroke-width="1" fill-rule="evenodd"/>
      </g>
    </g>
  </g>
</svg>
