<svg xmlns="http://www.w3.org/2000/svg" width="23.461" height="23.972" viewBox="0 0 23.461 23.972">
  <g id="Page-1" transform="translate(-0.214 -0.533)">
    <g id="Social-Icons---Isolated" transform="translate(0.214 0.533)">
      <g id="Google" transform="translate(0 0)">
        <path id="Fill-1" d="M5.124,18.914a7.089,7.089,0,0,1,.36-2.225L1.445,13.6a12.068,12.068,0,0,0,0,10.616L5.48,21.129a7.092,7.092,0,0,1-.356-2.215" transform="translate(-0.214 -6.928)" fill="#fbbc05" fill-rule="evenodd"/>
        <path id="Fill-2" d="M13.4,5.437a6.945,6.945,0,0,1,4.419,1.58L21.307,3.53A12,12,0,0,0,2.623,7.21l4.04,3.085A7.074,7.074,0,0,1,13.4,5.437" transform="translate(-1.393 -0.533)" fill="#ea4335" fill-rule="evenodd"/>
        <path id="Fill-3" d="M13.4,33.214a7.074,7.074,0,0,1-6.733-4.858l-4.04,3.084A11.967,11.967,0,0,0,13.4,38.117a11.439,11.439,0,0,0,7.821-2.987l-3.834-2.964A7.424,7.424,0,0,1,13.4,33.214" transform="translate(-1.393 -14.145)" fill="#34a853" fill-rule="evenodd"/>
        <path id="Fill-4" d="M35.171,21.913a9.932,9.932,0,0,0-.273-2.179H23.714v4.631h6.438A5.4,5.4,0,0,1,27.7,27.947l3.834,2.964a11.921,11.921,0,0,0,3.637-9" transform="translate(-11.71 -9.927)" fill="#4285f4" fill-rule="evenodd"/>
      </g>
    </g>
  </g>
</svg>
