<svg xmlns="http://www.w3.org/2000/svg" width="15.206" height="20.013" viewBox="0 0 15.206 20.013">
  <g id="Layer_2" data-name="Layer 2" transform="translate(0 0.013)">
    <g id="lock" transform="translate(0 -0.013)">
      <path id="Path_121" data-name="Path 121" d="M12.865,8.4h-.06v-3.2a5.2,5.2,0,0,0-5.438-5.2A5.31,5.31,0,0,0,2.4,5.354v.84a1,1,0,0,0,2,0V5.322A3.285,3.285,0,0,1,7.395,1.993a3.2,3.2,0,0,1,3.409,3.2V8.4H2.341A2.341,2.341,0,0,0,0,10.736v6.923A2.341,2.341,0,0,0,2.341,20H12.865a2.341,2.341,0,0,0,2.341-2.341V10.736A2.341,2.341,0,0,0,12.865,8.4Zm.34,9.264a.34.34,0,0,1-.34.34H2.341a.34.34,0,0,1-.34-.34V10.736a.34.34,0,0,1,.34-.34H12.865a.34.34,0,0,1,.34.34Z" transform="translate(0 0.013)" fill="#929397"/>
      <rect id="Rectangle_38" data-name="Rectangle 38" width="2.001" height="3.601" rx="1" transform="translate(6.603 12.41)" fill="#929397"/>
    </g>
  </g>
</svg>
