<svg xmlns="http://www.w3.org/2000/svg" width="83" height="56" viewBox="0 0 83 56">
  <g id="Group_113" data-name="Group 113" transform="translate(-287 -653)">
    <g id="Rectangle_41" data-name="Rectangle 41" transform="translate(287 653)" fill="none" stroke="#27aae2" stroke-width="1">
      <rect width="83" height="56" rx="10" stroke="none"/>
      <rect x="0.5" y="0.5" width="82" height="55" rx="9.5" fill="none"/>
    </g>
    <g id="_17998766861556105338" data-name="17998766861556105338" transform="translate(315 667)">
      <path id="Path_125" data-name="Path 125" d="M0,14A14,14,0,1,1,14,28,14,14,0,0,1,0,14Z" fill="#55acee"/>
      <path id="Path_126" data-name="Path 126" d="M18.581,17.379l.029.484-.49-.059a7.965,7.965,0,0,1-4.661-2.294l-.646-.643-.166.475a2.853,2.853,0,0,0,.607,2.926c.392.415.3.475-.372.227a1.156,1.156,0,0,0-.46-.109,3.543,3.543,0,0,0,.353,1.325,3.162,3.162,0,0,0,1.342,1.265l.48.227-.568.01c-.548,0-.568.01-.509.217a2.96,2.96,0,0,0,1.831,1.621l.607.208-.529.316a5.513,5.513,0,0,1-2.624.732,2.9,2.9,0,0,0-.8.079,7.449,7.449,0,0,0,1.89.87,8.272,8.272,0,0,0,6.424-.732,8.6,8.6,0,0,0,3.261-3.836,10.2,10.2,0,0,0,.666-2.966c0-.455.029-.514.578-1.058a6.468,6.468,0,0,0,.686-.761c.1-.188.088-.188-.411-.02-.832.3-.95.257-.539-.188a2.876,2.876,0,0,0,.666-1.058c0-.03-.147.02-.313.109a5.462,5.462,0,0,1-.862.336l-.529.168-.48-.326a3.985,3.985,0,0,0-.832-.435,3.345,3.345,0,0,0-1.714.04A2.83,2.83,0,0,0,18.581,17.379Z" transform="translate(-5 -6)" fill="#fff"/>
    </g>
  </g>
</svg>
