<svg xmlns="http://www.w3.org/2000/svg" width="9.237" height="8.128" viewBox="0 0 9.237 8.128">
  <path id="Video-icon" d="M8.775,10.128H.462A.462.462,0,0,1,0,9.666V3.94a.462.462,0,0,1,.462-.462H8.775a.462.462,0,0,1,.462.462V9.666A.462.462,0,0,1,8.775,10.128ZM.462,3.847a.092.092,0,0,0-.092.092V9.666a.092.092,0,0,0,.092.092H8.775a.092.092,0,0,0,.092-.092V3.94a.092.092,0,0,0-.092-.092ZM3.51,8.65a.185.185,0,0,1-.185-.185V5.14a.185.185,0,0,1,.284-.155L6.2,6.648a.185.185,0,0,1,0,.31L3.61,8.621a.185.185,0,0,1-.1.03Zm.185-3.17V8.129L5.756,6.8ZM8.5,3.108H.739V2.739H8.5Zm-.739-.739H1.478V2H7.759Z" transform="translate(0 -2)" fill="#646464"/>
</svg>
